# Blender 4.1.1
# www.blender.org
mtllib boss.mtl
o Cube
v -17.500000 12.500000 5.000000
v -17.500000 -12.500000 5.000000
v -17.500000 12.500000 -5.000000
v -17.500000 -12.500000 -5.000000
v 17.500000 12.500000 5.000000
v 17.500000 -12.500000 5.000000
v 17.500000 12.500000 -5.000000
v 17.500000 -12.500000 -5.000000
vn -0.0000 1.0000 -0.0000
vn -0.0000 -0.0000 -1.0000
vn 1.0000 -0.0000 -0.0000
vn -0.0000 -1.0000 -0.0000
vn -1.0000 -0.0000 -0.0000
vn -0.0000 -0.0000 1.0000
vt 0.250043 0.500000
vt 0.500000 0.250043
vt 0.500000 0.500000
vt 0.250043 0.000087
vt 0.500000 0.000087
vt 0.250043 0.250043
vt 0.000087 0.500000
vt 0.000087 0.250043
vt 0.500000 0.749957
vt 0.250043 0.999913
vt 0.250043 0.749957
vt 0.749957 0.250043
vt 0.749957 0.500000
vt 0.500000 0.999913
s 0
usemtl Material
f 5/1/1 3/2/1 1/3/1
f 3/2/2 8/4/2 4/5/2
f 7/6/3 6/7/3 8/8/3
f 2/9/4 8/10/4 6/11/4
f 1/3/5 4/12/5 2/13/5
f 5/1/6 2/9/6 6/11/6
f 5/1/1 7/6/1 3/2/1
f 3/2/2 7/6/2 8/4/2
f 7/6/3 5/1/3 6/7/3
f 2/9/4 4/14/4 8/10/4
f 1/3/5 3/2/5 4/12/5
f 5/1/6 1/3/6 2/9/6
