# Blender 4.1.1
# www.blender.org
mtllib ojama.mtl
o Cube
v -0.958381 0.958381 0.958381
v -0.958381 -0.958381 0.958381
v -0.958381 0.958381 -0.958381
v -0.958381 -0.958381 -0.958381
v 0.958381 0.958381 0.958381
v 0.958381 -0.958381 0.958381
v 0.958381 0.958381 -0.958381
v 0.958381 -0.958381 -0.958381
vn -0.0000 1.0000 -0.0000
vn -0.0000 -0.0000 -1.0000
vn 1.0000 -0.0000 -0.0000
vn -0.0000 -1.0000 -0.0000
vn -1.0000 -0.0000 -0.0000
vn -0.0000 -0.0000 1.0000
vt 0.250043 0.999913
vt 0.500000 0.749957
vt 0.500000 0.999913
vt 0.250043 0.500000
vt 0.500000 0.500000
vt 0.250043 0.749957
vt 0.000087 0.500000
vt 0.500000 0.250043
vt 0.250043 0.250043
vt 0.749957 0.749957
vt 0.749957 0.500000
vt 0.250043 0.000087
vt 0.000087 0.749957
vt 0.500000 0.000087
s 0
usemtl Material.001
f 5/1/1 3/2/1 1/3/1
f 3/2/2 8/4/2 4/5/2
f 7/6/3 6/7/3 8/4/3
f 2/8/4 8/4/4 6/9/4
f 1/10/5 4/5/5 2/11/5
f 5/12/6 2/8/6 6/9/6
f 5/1/1 7/6/1 3/2/1
f 3/2/2 7/6/2 8/4/2
f 7/6/3 5/13/3 6/7/3
f 2/8/4 4/5/4 8/4/4
f 1/10/5 3/2/5 4/5/5
f 5/12/6 1/14/6 2/8/6
