# Blender 4.1.1
# www.blender.org
mtllib scaffold.mtl
o 立方体.001
v 0.354434 0.000000 -0.500000
v 0.500000 0.000000 -0.354434
v 0.500000 0.500000 -0.354434
v 0.354434 0.500000 -0.500000
v 0.500000 0.000000 0.354434
v 0.354434 0.000000 0.500000
v 0.354434 0.500000 0.500000
v 0.500000 0.500000 0.354434
v -0.500000 0.000000 -0.354434
v -0.354434 0.000000 -0.500000
v -0.354434 0.500000 -0.500000
v -0.500000 0.500000 -0.354434
v -0.354434 0.000000 0.500000
v -0.500000 0.000000 0.354434
v -0.500000 0.500000 0.354434
v -0.354434 0.500000 0.500000
vn -0.0000 -0.0000 -1.0000
vn -1.0000 -0.0000 -0.0000
vn -0.0000 1.0000 -0.0000
vn 1.0000 -0.0000 -0.0000
vn -0.0000 -0.0000 1.0000
vn 0.7071 -0.0000 -0.7071
vn 0.7071 -0.0000 0.7071
vn -0.7071 -0.0000 0.7071
vn -0.7071 -0.0000 -0.7071
vn -0.0000 -1.0000 -0.0000
vt 0.546192 0.803515
vt 0.275339 0.995513
vt 0.275339 0.803515
vt 0.546192 0.555758
vt 0.275339 0.747757
vt 0.275339 0.555758
vt 0.817044 0.555758
vt 0.777617 0.787183
vt 0.546192 0.747757
vt 0.546192 0.060245
vt 0.275339 0.252243
vt 0.275339 0.060245
vt 0.546192 0.308002
vt 0.275339 0.500000
vt 0.275339 0.308002
vt 0.546192 0.004487
vt 0.275339 0.004487
vt 0.546192 0.252243
vt 0.546192 0.500000
vt 0.235912 0.787183
vt 0.004487 0.747757
vt 0.546192 0.995513
vt 0.585618 0.516331
vt 0.777617 0.516331
vt 0.817044 0.747757
vt 0.585618 0.787183
vt 0.004487 0.555758
vt 0.043914 0.516331
vt 0.235912 0.516331
vt 0.043914 0.787183
s 0
usemtl マテリアル.001
f 11/1/1 1/2/1 10/3/1
f 15/4/2 9/5/2 14/6/2
f 8/7/3 4/8/3 12/9/3
f 3/10/4 5/11/4 2/12/4
f 7/13/5 13/14/5 6/15/5
f 4/16/6 2/12/6 1/17/6
f 6/15/7 8/18/7 7/13/7
f 14/6/8 16/19/8 15/4/8
f 10/3/9 12/9/9 11/1/9
f 14/6/10 10/20/10 2/21/10
f 11/1/1 4/22/1 1/2/1
f 15/4/2 12/9/2 9/5/2
f 12/9/3 15/4/3 16/23/3
f 16/23/3 7/24/3 8/7/3
f 8/7/3 3/25/3 4/8/3
f 4/8/3 11/26/3 12/9/3
f 12/9/3 16/23/3 8/7/3
f 3/10/4 8/18/4 5/11/4
f 7/13/5 16/19/5 13/14/5
f 4/16/6 3/10/6 2/12/6
f 6/15/7 5/11/7 8/18/7
f 14/6/8 13/14/8 16/19/8
f 10/3/9 9/5/9 12/9/9
f 2/21/10 5/27/10 6/28/10
f 6/28/10 13/29/10 14/6/10
f 14/6/10 9/5/10 10/20/10
f 10/20/10 1/30/10 2/21/10
f 2/21/10 6/28/10 14/6/10
